<?xml version="1.0" standalone="no"?>
<!DOCTYPE svg PUBLIC "-//W3C//DTD SVG 20010904//EN"
 "http://www.w3.org/TR/2001/REC-SVG-20010904/DTD/svg10.dtd">
<svg version="1.0" xmlns="http://www.w3.org/2000/svg"
 width="512.000000pt" height="421.000000pt" viewBox="0 0 512.000000 421.000000"
 preserveAspectRatio="xMidYMid meet">

<g transform="translate(0.000000,421.000000) scale(0.100000,-0.100000)"
fill="#000000" stroke="none">
<path d="M2165 3529 c-421 -72 -741 -285 -964 -640 -88 -141 -169 -346 -206
-524 -23 -107 -32 -398 -16 -490 16 -90 61 -184 115 -240 29 -29 47 -59 55
-89 6 -25 27 -80 46 -122 161 -353 536 -641 970 -745 144 -34 409 -37 550 -5
11 2 43 9 70 16 145 32 335 121 457 212 95 73 242 227 305 321 147 222 210
441 199 692 -8 188 -46 372 -110 535 -4 10 3 19 23 28 88 39 63 180 -54 309
-30 34 -55 70 -55 81 0 77 -103 225 -187 268 -21 10 -46 29 -56 42 -26 31
-170 142 -243 185 -266 159 -589 219 -899 166z m426 -19 c215 -31 465 -149
666 -316 7 -6 13 -13 13 -15 0 -2 -44 -4 -98 -4 -91 0 -101 -2 -160 -34 -73
-40 -130 -98 -168 -173 -32 -63 -45 -191 -24 -252 7 -21 10 -39 7 -42 -2 -3
-41 -14 -86 -24 -103 -25 -225 -83 -325 -154 -42 -31 -79 -56 -80 -56 -2 0 -6
12 -9 28 -9 42 -79 144 -125 180 -100 80 -231 113 -349 88 -143 -29 -239 -105
-302 -236 -33 -69 -36 -82 -36 -165 0 -107 19 -169 75 -248 46 -64 114 -117
190 -148 82 -33 213 -32 296 2 l61 26 6 -111 c12 -219 83 -383 191 -438 53
-27 144 -30 208 -5 55 21 120 88 150 155 28 62 28 174 -1 338 -11 67 -21 125
-21 130 0 5 28 9 63 9 73 0 132 25 199 84 l43 39 91 -137 c96 -142 141 -184
230 -216 86 -31 147 -15 207 55 45 53 61 111 55 203 -7 106 -58 213 -185 386
-16 22 -16 24 2 34 78 43 162 171 172 262 3 25 9 45 13 45 13 0 88 -103 109
-150 25 -54 26 -98 5 -128 -25 -36 -58 -29 -79 18 -10 22 -21 40 -25 40 -19 0
-16 -18 15 -78 39 -79 86 -223 112 -342 14 -67 18 -128 18 -290 -1 -195 -2
-209 -29 -295 -63 -205 -166 -376 -321 -530 -114 -115 -237 -201 -363 -255
-412 -178 -839 -153 -1237 72 -284 161 -477 377 -581 656 -13 34 -24 64 -24
66 0 3 13 7 30 11 43 10 78 41 107 98 23 47 26 66 31 195 4 117 2 142 -9 142
-11 0 -14 -26 -14 -128 -1 -146 -12 -187 -62 -243 -50 -56 -83 -54 -143 9 -85
88 -116 219 -107 449 7 164 32 299 82 442 155 446 452 752 860 889 218 73 433
93 656 62z m735 -377 c75 -25 167 -122 189 -198 23 -78 17 -174 -15 -239 -28
-59 -95 -126 -151 -151 l-40 -19 -68 37 c-82 45 -134 64 -226 86 -69 17 -70
18 -95 67 -19 38 -24 64 -24 119 0 136 84 255 211 301 53 18 160 17 219 -3z
m-1213 -441 c102 -50 207 -179 207 -254 0 -14 -10 -33 -22 -44 -45 -40 -95
-133 -118 -218 -26 -98 -33 -104 -133 -127 -110 -24 -222 15 -306 106 -68 73
-86 123 -86 235 0 82 4 103 26 151 32 68 90 129 156 164 42 22 58 25 130 22
67 -3 92 -9 146 -35z m952 -79 c167 -52 263 -122 350 -253 127 -193 156 -338
88 -447 -54 -88 -111 -108 -204 -74 -81 31 -127 75 -223 218 l-85 128 15 47
c20 60 6 95 -51 122 -61 30 -122 26 -200 -14 -76 -38 -171 -125 -181 -164 -9
-36 12 -83 47 -103 19 -11 28 -25 27 -42 0 -14 8 -62 16 -106 27 -130 32 -272
12 -332 -21 -63 -78 -130 -130 -154 -56 -26 -148 -25 -202 2 -167 80 -231 468
-129 770 49 142 159 251 351 347 191 96 323 110 499 55z"/>
<path d="M3002 2037 c-13 -6 -32 -28 -43 -49 -32 -62 -71 -80 -149 -65 -34 6
-34 6 -7 -5 34 -15 34 -22 0 -37 -25 -11 -29 -10 -46 10 -18 22 -18 24 -1 36
10 7 12 13 6 13 -18 0 -52 -38 -52 -58 0 -52 67 -92 152 -92 102 1 174 56 200
153 10 41 10 52 -2 74 -18 32 -28 35 -58 20z m8 -48 c0 -36 -2 -40 -22 -37
-12 2 -23 8 -25 14 -3 10 33 64 43 64 2 0 4 -18 4 -41z m-70 -65 c0 -29 -39
-58 -65 -48 -24 10 -18 23 18 38 36 16 47 19 47 10z m-79 -81 c47 -28 38 -46
-20 -41 -58 6 -112 35 -90 49 23 14 79 10 110 -8z"/>
</g>
</svg>
